# xmcd CD database file
#
# Track frame offsets:
#	150
#	24507
#	43008
#	56246
#	84095
#	99774
#	116803
#	137663
#	153653
#	177185
#	200412
#	211351
#
# Disc length: 3126 seconds
#
# Revision: 0
# Processed by: cddbd v1.5.2PL0 Copyright (c) Steve Scherf et al.
# Submitted via: CDex 1.70beta2
#
DISCID=9e0c340c
DTITLE=Aslan, Pablo - Avantango
DYEAR=2004
DGENRE=Jazz
TTITLE0=Derviche
TTITLE1=Deus xango
TTITLE2=Vuelvo al sur
TTITLE3=Sabateando
TTITLE4=Esqualo
TTITLE5=Malena
TTITLE6=Amadeo
TTITLE7=Beto
TTITLE8=Verano porteno
TTITLE9=El enchanter
TTITLE10=Muchacha (Ojos de papel)
TTITLE11=La calle 92
EXTD=YEAR: 2004
EXTT0=
EXTT1=
EXTT2=
EXTT3=
EXTT4=
EXTT5=
EXTT6=
EXTT7=
EXTT8=
EXTT9=
EXTT10=
EXTT11=
PLAYORDER=
